<svg width="1440" height="900" viewBox="0 0 1440 900" fill="none" xmlns="http://www.w3.org/2000/svg">
<rect width="1440" height="900" fill="white"/>
<path d="M314.142 486.372C348.193 536.121 372.28 583.006 362.994 623.718C353.707 664.519 310.949 698.967 265.87 712.747C220.888 726.526 173.583 719.547 131.116 701.294C88.7455 683.13 51.115 653.782 34.573 612.534C17.9343 571.285 22.481 518.226 52.1791 469.461C81.8772 420.697 136.824 376.228 186.353 380.254C235.882 384.191 279.994 436.713 314.142 486.372Z" fill="#DEAFB3"/>
<path d="M1026.04 412.824C1053.74 443.91 1046.61 505.286 1032.9 565.599C1019.27 626.001 999.059 685.429 956.648 709.253C914.147 733.077 849.447 721.386 803.969 691.717C758.49 662.047 732.231 614.488 716.981 560.906C701.822 507.412 697.49 447.984 725.373 416.986C753.256 385.9 813.173 383.243 874.443 382.269C935.713 381.206 998.246 381.826 1026.04 412.824Z" fill="#2741CD"/>
<path d="M1350.45 489.943C1382.35 536.813 1407.54 581.794 1397.93 617.008C1388.32 652.222 1343.9 677.75 1298.99 697.121C1254.16 716.575 1208.92 729.873 1168.9 716.739C1128.87 703.606 1094.15 664.042 1074.93 612.001C1055.7 559.96 1051.98 495.443 1082.22 448.901C1112.55 402.442 1176.85 373.877 1228.39 384.055C1279.85 394.234 1318.55 442.991 1350.45 489.943Z" fill="#131888"/>
<path d="M647.057 458.46C682.173 500.966 700.19 554.979 684.008 593.806C667.827 632.633 617.363 656.117 565.899 680.619C514.351 705.042 461.719 730.405 431.024 715.61C400.246 700.815 391.321 645.784 375.64 589.814C359.959 533.844 337.605 476.934 358.457 437.481C379.31 398.028 443.453 376.11 501.59 380.571C559.727 385.112 611.942 415.954 647.057 458.46Z" fill="#E18C93"/>
<circle cx="1195" cy="114" r="10" transform="rotate(-90 1195 114)" fill="black"/>
<circle cx="1242" cy="114" r="10" transform="rotate(-90 1242 114)" fill="black"/>
<circle cx="1289" cy="114" r="10" transform="rotate(-90 1289 114)" fill="black"/>
<circle cx="1336" cy="114" r="10" transform="rotate(-90 1336 114)" fill="black"/>
<circle cx="1383" cy="114" r="10" transform="rotate(-90 1383 114)" fill="black"/>
<circle cx="1430" cy="114" r="10" transform="rotate(-90 1430 114)" fill="black"/>
<circle cx="1195" cy="62" r="10" transform="rotate(-90 1195 62)" fill="black"/>
<circle cx="1242" cy="62" r="10" transform="rotate(-90 1242 62)" fill="black"/>
<circle cx="1289" cy="62" r="10" transform="rotate(-90 1289 62)" fill="black"/>
<circle cx="1336" cy="62" r="10" transform="rotate(-90 1336 62)" fill="black"/>
<circle cx="1383" cy="62" r="10" transform="rotate(-90 1383 62)" fill="black"/>
<circle cx="1430" cy="62" r="10" transform="rotate(-90 1430 62)" fill="black"/>
<circle cx="1195" cy="10" r="10" transform="rotate(-90 1195 10)" fill="black"/>
<circle cx="1242" cy="10" r="10" transform="rotate(-90 1242 10)" fill="black"/>
<circle cx="1289" cy="10" r="10" transform="rotate(-90 1289 10)" fill="black"/>
<circle cx="1336" cy="10" r="10" transform="rotate(-90 1336 10)" fill="black"/>
<circle cx="1383" cy="10" r="10" transform="rotate(-90 1383 10)" fill="black"/>
<circle cx="1430" cy="10" r="10" transform="rotate(-90 1430 10)" fill="black"/>
<circle cx="914" cy="114" r="10" transform="rotate(-90 914 114)" fill="black"/>
<circle cx="961" cy="114" r="10" transform="rotate(-90 961 114)" fill="black"/>
<circle cx="1008" cy="114" r="10" transform="rotate(-90 1008 114)" fill="black"/>
<circle cx="1055" cy="114" r="10" transform="rotate(-90 1055 114)" fill="black"/>
<circle cx="1102" cy="114" r="10" transform="rotate(-90 1102 114)" fill="black"/>
<circle cx="1149" cy="114" r="10" transform="rotate(-90 1149 114)" fill="black"/>
<circle cx="914" cy="62" r="10" transform="rotate(-90 914 62)" fill="black"/>
<circle cx="961" cy="62" r="10" transform="rotate(-90 961 62)" fill="black"/>
<circle cx="1008" cy="62" r="10" transform="rotate(-90 1008 62)" fill="black"/>
<circle cx="1055" cy="62" r="10" transform="rotate(-90 1055 62)" fill="black"/>
<circle cx="1102" cy="62" r="10" transform="rotate(-90 1102 62)" fill="black"/>
<circle cx="1149" cy="62" r="10" transform="rotate(-90 1149 62)" fill="black"/>
<circle cx="914" cy="10" r="10" transform="rotate(-90 914 10)" fill="black"/>
<circle cx="961" cy="10" r="10" transform="rotate(-90 961 10)" fill="black"/>
<circle cx="1008" cy="10" r="10" transform="rotate(-90 1008 10)" fill="black"/>
<circle cx="1055" cy="10" r="10" transform="rotate(-90 1055 10)" fill="black"/>
<circle cx="1102" cy="10" r="10" transform="rotate(-90 1102 10)" fill="black"/>
<circle cx="1149" cy="10" r="10" transform="rotate(-90 1149 10)" fill="black"/>
<circle cx="633" cy="114" r="10" transform="rotate(-90 633 114)" fill="black"/>
<circle cx="680" cy="114" r="10" transform="rotate(-90 680 114)" fill="black"/>
<circle cx="727" cy="114" r="10" transform="rotate(-90 727 114)" fill="black"/>
<circle cx="774" cy="114" r="10" transform="rotate(-90 774 114)" fill="black"/>
<circle cx="821" cy="114" r="10" transform="rotate(-90 821 114)" fill="black"/>
<circle cx="868" cy="114" r="10" transform="rotate(-90 868 114)" fill="black"/>
<circle cx="633" cy="62" r="10" transform="rotate(-90 633 62)" fill="black"/>
<circle cx="680" cy="62" r="10" transform="rotate(-90 680 62)" fill="black"/>
<circle cx="727" cy="62" r="10" transform="rotate(-90 727 62)" fill="black"/>
<circle cx="774" cy="62" r="10" transform="rotate(-90 774 62)" fill="black"/>
<circle cx="821" cy="62" r="10" transform="rotate(-90 821 62)" fill="black"/>
<circle cx="868" cy="62" r="10" transform="rotate(-90 868 62)" fill="black"/>
<circle cx="633" cy="10" r="10" transform="rotate(-90 633 10)" fill="black"/>
<circle cx="680" cy="10" r="10" transform="rotate(-90 680 10)" fill="black"/>
<circle cx="727" cy="10" r="10" transform="rotate(-90 727 10)" fill="black"/>
<circle cx="774" cy="10" r="10" transform="rotate(-90 774 10)" fill="black"/>
<circle cx="821" cy="10" r="10" transform="rotate(-90 821 10)" fill="black"/>
<circle cx="868" cy="10" r="10" transform="rotate(-90 868 10)" fill="black"/>
</svg>
