<svg width="1440" height="566" viewBox="0 0 1440 566" fill="none" xmlns="http://www.w3.org/2000/svg">
<rect y="61" width="1440" height="450" fill="white"/>
<circle cx="74.3591" cy="259.264" r="10" transform="rotate(-28.5491 74.3591 259.264)" fill="black"/>
<circle cx="96.8208" cy="300.549" r="10" transform="rotate(-28.5491 96.8208 300.549)" fill="black"/>
<circle cx="119.283" cy="341.834" r="10" transform="rotate(-28.5491 119.283 341.834)" fill="black"/>
<circle cx="141.745" cy="383.119" r="10" transform="rotate(-28.5491 141.745 383.119)" fill="black"/>
<circle cx="164.206" cy="424.405" r="10" transform="rotate(-28.5491 164.206 424.405)" fill="black"/>
<circle cx="97.5744" cy="193.127" r="10" transform="rotate(-28.5491 97.5744 193.127)" fill="black"/>
<circle cx="120.036" cy="234.412" r="10" transform="rotate(-28.5491 120.036 234.412)" fill="black"/>
<circle cx="142.498" cy="275.698" r="10" transform="rotate(-28.5491 142.498 275.698)" fill="black"/>
<circle cx="164.96" cy="316.983" r="10" transform="rotate(-28.5491 164.96 316.983)" fill="black"/>
<circle cx="187.422" cy="358.268" r="10" transform="rotate(-28.5491 187.422 358.268)" fill="black"/>
<circle cx="209.884" cy="399.553" r="10" transform="rotate(-28.5491 209.884 399.553)" fill="black"/>
<circle cx="143.252" cy="168.276" r="10" transform="rotate(-28.5491 143.252 168.276)" fill="black"/>
<circle cx="165.713" cy="209.561" r="10" transform="rotate(-28.5491 165.713 209.561)" fill="black"/>
<circle cx="188.175" cy="250.846" r="10" transform="rotate(-28.5491 188.175 250.846)" fill="black"/>
<circle cx="210.637" cy="292.131" r="10" transform="rotate(-28.5491 210.637 292.131)" fill="black"/>
<circle cx="233.099" cy="333.417" r="10" transform="rotate(-28.5491 233.099 333.417)" fill="black"/>
<circle cx="255.561" cy="374.702" r="10" transform="rotate(-28.5491 255.561 374.702)" fill="black"/>
<circle cx="186.668" cy="465.69" r="10" transform="rotate(-28.5491 186.668 465.69)" fill="black"/>
<circle cx="232.345" cy="440.838" r="10" transform="rotate(-28.5491 232.345 440.838)" fill="black"/>
<circle cx="278.023" cy="415.987" r="10" transform="rotate(-28.5491 278.023 415.987)" fill="black"/>
<path d="M361.434 143.255C429.598 123.142 500.147 108.113 593.031 94.2517C686.14 80.4167 801.573 67.8383 899.013 85.5149C996.465 103.102 1075.91 151.034 1145.11 200.392C1214.3 249.75 1273.46 300.562 1267.73 343.586C1262.23 386.636 1191.6 421.873 1106.49 443.806C1021.14 465.713 921.085 474.292 810.457 481.087C699.83 487.883 578.408 492.87 467.007 473.013C355.595 453.245 254.213 408.545 204.73 361.225C155.472 313.931 158.123 263.929 192.564 226.355C227.006 188.781 293.033 163.432 361.434 143.255Z" fill="#2741CD"/>
<path d="M496.941 155.858C524.815 175.671 530.48 219.652 528.265 264.273C525.989 308.741 515.679 353.907 491.045 395.966C466.458 437.921 427.393 476.827 381.844 485.459C336.401 494.138 284.474 472.544 252.127 439.056C219.72 405.416 206.954 360.035 170.474 319.055C133.994 278.075 73.908 241.543 68.1017 204.535C62.342 167.423 110.97 129.881 158.291 114.374C205.566 98.9713 251.595 105.755 286.461 114.482C321.327 123.209 345.091 134.033 381.953 137.115C418.876 140.35 468.913 136.101 496.941 155.858Z" fill="#131888"/>
<path d="M1219.69 122.341C1250.68 156.822 1262.8 202.886 1269.09 245.059C1275.48 287.323 1276.05 325.695 1263.08 358.818C1250.21 391.941 1223.69 419.724 1192.31 441.897C1161.03 464.069 1124.98 480.631 1089.5 479.907C1054.02 479.183 1019.02 461.173 978.676 441.806C938.333 422.439 892.553 401.624 870.522 366.691C848.586 331.668 850.398 282.436 872.811 246.598C895.224 210.76 938.238 188.225 977.723 156.279C1017.21 124.423 1053.07 83.2453 1095.89 74.0143C1138.81 64.8738 1188.69 87.8608 1219.69 122.341Z" fill="#E18C93"/>
<circle cx="1221" cy="135" r="10" fill="black"/>
<circle cx="1221" cy="182" r="10" fill="black"/>
<circle cx="1221" cy="229" r="10" fill="black"/>
<circle cx="1221" cy="276" r="10" fill="black"/>
<circle cx="1221" cy="323" r="10" fill="black"/>
<circle cx="1221" cy="370" r="10" fill="black"/>
<circle cx="1273" cy="135" r="10" fill="black"/>
<circle cx="1273" cy="182" r="10" fill="black"/>
<circle cx="1273" cy="229" r="10" fill="black"/>
<circle cx="1273" cy="276" r="10" fill="black"/>
<circle cx="1273" cy="323" r="10" fill="black"/>
<circle cx="1273" cy="370" r="10" fill="black"/>
<circle cx="1325" cy="135" r="10" fill="black"/>
<circle cx="1325" cy="182" r="10" fill="black"/>
<circle cx="1325" cy="229" r="10" fill="black"/>
<circle cx="1325" cy="276" r="10" fill="black"/>
<circle cx="1325" cy="323" r="10" fill="black"/>
<circle cx="1325" cy="370" r="10" fill="black"/>
<circle cx="1221" cy="417" r="10" fill="black"/>
<circle cx="1273" cy="417" r="10" fill="black"/>
<circle cx="1325" cy="417" r="10" fill="black"/>
<ellipse cx="324.682" cy="140" rx="7.41936" ry="7.68213" transform="rotate(-90 324.682 140)" fill="black"/>
<ellipse cx="360.788" cy="140" rx="7.41936" ry="7.68213" transform="rotate(-90 360.788 140)" fill="black"/>
<ellipse cx="396.895" cy="140" rx="7.41936" ry="7.68213" transform="rotate(-90 396.895 140)" fill="black"/>
<ellipse cx="433" cy="140" rx="7.41936" ry="7.68213" transform="rotate(-90 433 140)" fill="black"/>
<ellipse cx="469.106" cy="140" rx="7.41936" ry="7.68213" transform="rotate(-90 469.106 140)" fill="black"/>
<ellipse cx="505.212" cy="140" rx="7.41936" ry="7.68213" transform="rotate(-90 505.212 140)" fill="black"/>
<ellipse cx="324.682" cy="101.419" rx="7.41936" ry="7.68213" transform="rotate(-90 324.682 101.419)" fill="black"/>
<ellipse cx="360.788" cy="101.419" rx="7.41936" ry="7.68213" transform="rotate(-90 360.788 101.419)" fill="black"/>
<ellipse cx="396.895" cy="101.419" rx="7.41936" ry="7.68213" transform="rotate(-90 396.895 101.419)" fill="black"/>
<ellipse cx="433" cy="101.419" rx="7.41936" ry="7.68213" transform="rotate(-90 433 101.419)" fill="black"/>
<ellipse cx="469.106" cy="101.419" rx="7.41936" ry="7.68213" transform="rotate(-90 469.106 101.419)" fill="black"/>
<ellipse cx="505.212" cy="101.419" rx="7.41936" ry="7.68213" transform="rotate(-90 505.212 101.419)" fill="black"/>
<ellipse cx="541.318" cy="140" rx="7.41936" ry="7.68213" transform="rotate(-90 541.318 140)" fill="black"/>
<ellipse cx="541.318" cy="101.419" rx="7.41936" ry="7.68213" transform="rotate(-90 541.318 101.419)" fill="black"/>
</svg>
