<svg width="1440" height="900" viewBox="0 0 1440 900" fill="none" xmlns="http://www.w3.org/2000/svg">
<rect width="1440" height="900" fill="white"/>
<path d="M729.793 366.431C814.168 381.379 905.668 415.567 908.105 467.811C910.543 520.055 823.918 590.207 802.73 663.911C781.73 737.615 825.98 814.871 797.668 844.767C769.355 874.663 668.48 857.199 590.48 853.351C512.48 849.651 457.355 859.567 384.605 866.079C311.668 872.591 221.105 875.551 155.855 845.063C90.4175 814.723 50.105 750.787 66.4175 693.955C82.5425 637.123 155.292 587.395 203.48 539.147C251.668 490.899 275.293 443.983 318.98 414.383C362.855 384.783 426.605 372.351 497.293 364.063C567.98 355.775 645.23 351.483 729.793 366.431Z" fill="#DEAFB3"/>
<path d="M423.966 34.7788C445.032 51.9858 433.763 121.216 488.12 155.077C542.477 188.938 662.632 187.381 670.136 207.516C677.469 227.701 572.294 269.384 512.836 307.455C453.379 345.527 439.639 379.986 409.843 422.996C380.188 465.812 334.619 516.986 280.067 537.08C225.485 557.029 161.719 545.802 125.832 511.765C89.9451 477.728 81.5946 420.978 74.331 370.522C67.0381 319.922 60.6312 275.519 60.546 222.872C60.6032 170.031 66.7812 108.849 107.113 84.8075C147.473 60.9108 221.644 74.2512 285.516 63.4891C349.358 52.5817 402.901 17.5717 423.966 34.7788Z" fill="#E18C93"/>
<ellipse cx="150.287" cy="300.068" rx="9.18368" ry="9.07976" fill="black"/>
<ellipse cx="150.287" cy="342.743" rx="9.18368" ry="9.07975" fill="black"/>
<ellipse cx="150.287" cy="385.417" rx="9.18368" ry="9.07975" fill="black"/>
<ellipse cx="150.287" cy="428.092" rx="9.18368" ry="9.07975" fill="black"/>
<ellipse cx="150.287" cy="470.767" rx="9.18368" ry="9.07976" fill="black"/>
<ellipse cx="150.287" cy="513.442" rx="9.18368" ry="9.07976" fill="black"/>
<ellipse cx="198.043" cy="300.068" rx="9.18369" ry="9.07976" fill="black"/>
<ellipse cx="198.043" cy="342.743" rx="9.18369" ry="9.07975" fill="black"/>
<ellipse cx="198.043" cy="385.417" rx="9.18369" ry="9.07975" fill="black"/>
<ellipse cx="198.043" cy="428.092" rx="9.18369" ry="9.07975" fill="black"/>
<ellipse cx="198.043" cy="470.767" rx="9.18369" ry="9.07976" fill="black"/>
<ellipse cx="198.043" cy="513.442" rx="9.18369" ry="9.07976" fill="black"/>
<ellipse cx="245.798" cy="300.068" rx="9.18369" ry="9.07976" fill="black"/>
<ellipse cx="245.798" cy="342.743" rx="9.18369" ry="9.07975" fill="black"/>
<ellipse cx="245.798" cy="385.417" rx="9.18369" ry="9.07975" fill="black"/>
<ellipse cx="245.798" cy="428.092" rx="9.18369" ry="9.07975" fill="black"/>
<ellipse cx="245.798" cy="470.767" rx="9.18369" ry="9.07976" fill="black"/>
<ellipse cx="245.798" cy="513.442" rx="9.18369" ry="9.07976" fill="black"/>
<ellipse cx="395.491" cy="779.479" rx="9.07974" ry="9.1837" transform="rotate(-90 395.491 779.479)" fill="black"/>
<ellipse cx="438.654" cy="779.479" rx="9.07974" ry="9.18365" transform="rotate(-90 438.654 779.479)" fill="black"/>
<ellipse cx="481.818" cy="779.479" rx="9.07974" ry="9.18365" transform="rotate(-90 481.818 779.479)" fill="black"/>
<ellipse cx="524.981" cy="779.479" rx="9.07974" ry="9.18369" transform="rotate(-90 524.981 779.479)" fill="black"/>
<ellipse cx="568.144" cy="779.479" rx="9.07974" ry="9.18369" transform="rotate(-90 568.144 779.479)" fill="black"/>
<ellipse cx="611.308" cy="779.479" rx="9.07974" ry="9.18369" transform="rotate(-90 611.308 779.479)" fill="black"/>
<ellipse cx="395.491" cy="732.264" rx="9.07974" ry="9.1837" transform="rotate(-90 395.491 732.264)" fill="black"/>
<ellipse cx="438.654" cy="732.264" rx="9.07974" ry="9.18365" transform="rotate(-90 438.654 732.264)" fill="black"/>
<ellipse cx="481.818" cy="732.264" rx="9.07974" ry="9.18365" transform="rotate(-90 481.818 732.264)" fill="black"/>
<ellipse cx="524.981" cy="732.264" rx="9.07974" ry="9.18369" transform="rotate(-90 524.981 732.264)" fill="black"/>
<ellipse cx="568.144" cy="732.264" rx="9.07974" ry="9.18369" transform="rotate(-90 568.144 732.264)" fill="black"/>
<ellipse cx="611.308" cy="732.264" rx="9.07974" ry="9.18369" transform="rotate(-90 611.308 732.264)" fill="black"/>
<ellipse cx="395.491" cy="685.049" rx="9.07974" ry="9.1837" transform="rotate(-90 395.491 685.049)" fill="black"/>
<ellipse cx="438.654" cy="685.049" rx="9.07974" ry="9.18365" transform="rotate(-90 438.654 685.049)" fill="black"/>
<ellipse cx="481.818" cy="685.049" rx="9.07974" ry="9.18365" transform="rotate(-90 481.818 685.049)" fill="black"/>
<ellipse cx="524.981" cy="685.049" rx="9.07974" ry="9.18369" transform="rotate(-90 524.981 685.049)" fill="black"/>
<ellipse cx="568.144" cy="685.049" rx="9.07974" ry="9.18369" transform="rotate(-90 568.144 685.049)" fill="black"/>
<ellipse cx="611.308" cy="685.049" rx="9.07974" ry="9.18369" transform="rotate(-90 611.308 685.049)" fill="black"/>
<ellipse cx="654.471" cy="779.479" rx="9.07974" ry="9.18369" transform="rotate(-90 654.471 779.479)" fill="black"/>
<ellipse cx="697.634" cy="779.479" rx="9.07974" ry="9.18365" transform="rotate(-90 697.634 779.479)" fill="black"/>
<ellipse cx="740.797" cy="779.479" rx="9.07974" ry="9.18369" transform="rotate(-90 740.797 779.479)" fill="black"/>
<ellipse cx="783.961" cy="779.479" rx="9.07974" ry="9.18365" transform="rotate(-90 783.961 779.479)" fill="black"/>
<ellipse cx="827.124" cy="779.479" rx="9.07974" ry="9.18369" transform="rotate(-90 827.124 779.479)" fill="black"/>
<ellipse cx="870.287" cy="779.479" rx="9.07974" ry="9.18369" transform="rotate(-90 870.287 779.479)" fill="black"/>
<ellipse cx="654.471" cy="732.264" rx="9.07974" ry="9.18369" transform="rotate(-90 654.471 732.264)" fill="black"/>
<ellipse cx="697.634" cy="732.264" rx="9.07974" ry="9.18365" transform="rotate(-90 697.634 732.264)" fill="black"/>
<ellipse cx="740.797" cy="732.264" rx="9.07974" ry="9.18369" transform="rotate(-90 740.797 732.264)" fill="black"/>
<ellipse cx="783.961" cy="732.264" rx="9.07974" ry="9.18365" transform="rotate(-90 783.961 732.264)" fill="black"/>
<ellipse cx="827.124" cy="732.264" rx="9.07974" ry="9.18369" transform="rotate(-90 827.124 732.264)" fill="black"/>
<ellipse cx="870.287" cy="732.264" rx="9.07974" ry="9.18369" transform="rotate(-90 870.287 732.264)" fill="black"/>
<path d="M1021.35 739.946C953.991 762.029 880.238 760.797 828.538 731.295C776.839 701.794 747.323 643.913 729.622 587.166C712.052 530.308 706.26 474.8 728.799 427.778C751.115 380.758 801.855 342.331 830.371 279.511C859.017 216.581 865.793 129.146 907.89 79.6795C949.986 30.213 1027.53 18.6048 1090.31 34.2958C1153.19 50.094 1201.29 93.1913 1259.86 131.156C1318.56 169.011 1387.81 201.84 1382.45 251.762C1377.19 301.791 1297.18 369.023 1256.21 434.403C1215.23 499.783 1213.16 563.42 1181.66 617.83C1150.02 672.35 1088.84 717.752 1021.35 739.946Z" fill="#C98D21"/>
<path d="M1112.95 353.999C1170.22 382.468 1240.91 395.735 1289.91 432.773C1338.91 469.811 1366.56 530.482 1362.92 591.014C1359.28 651.685 1324.51 712.079 1272.2 757.132C1220.05 802.048 1150.52 831.485 1084.47 828.306C1018.25 825.127 955.679 789.333 896.249 765.286C836.653 741.239 780.368 728.801 747.259 698.673C714.316 668.683 704.383 620.727 673.261 563.927C642.139 507.126 589.827 441.48 607.375 399.605C624.922 357.73 712.33 339.626 784.176 316.684C855.856 293.881 911.976 266.241 961.97 274.256C1011.96 282.134 1055.83 325.667 1112.95 353.999Z" fill="#2741CD"/>
<path d="M900.427 218.901C961.599 320.117 986.673 429.045 959.716 514.55C932.759 600.056 853.522 662.529 778.28 696.957C703.039 731.384 631.338 738.135 545.134 743.809C458.909 749.689 357.952 754.677 272.489 703.722C187.027 652.767 117.079 545.663 140.428 462.695C163.592 379.499 280.053 320.439 379.77 235.977C479.509 151.31 562.503 41.2414 652.543 32.8458C742.377 24.429 839.44 117.912 900.427 218.901Z" fill="#131888"/>
<ellipse rx="11.3864" ry="11.4245" transform="matrix(0.602232 -0.798321 0.804977 0.593305 728.253 144.087)" fill="black"/>
<ellipse rx="11.3864" ry="11.4245" transform="matrix(0.602232 -0.798321 0.804977 0.593305 773.88 177.717)" fill="black"/>
<ellipse rx="11.3864" ry="11.4245" transform="matrix(0.602232 -0.798321 0.804977 0.593305 819.506 211.346)" fill="black"/>
<ellipse rx="11.3864" ry="11.4245" transform="matrix(0.602232 -0.798321 0.804977 0.593305 865.134 244.975)" fill="black"/>
<ellipse rx="11.3864" ry="11.4245" transform="matrix(0.602232 -0.798321 0.804977 0.593305 910.761 278.604)" fill="black"/>
<ellipse rx="11.3864" ry="11.4245" transform="matrix(0.602232 -0.798321 0.804977 0.593305 956.388 312.234)" fill="black"/>
<ellipse rx="11.3864" ry="11.4245" transform="matrix(0.602232 -0.798321 0.804977 0.593305 763.911 96.8191)" fill="black"/>
<ellipse rx="11.3864" ry="11.4245" transform="matrix(0.602232 -0.798321 0.804977 0.593305 809.537 130.448)" fill="black"/>
<ellipse rx="11.3864" ry="11.4245" transform="matrix(0.602232 -0.798321 0.804977 0.593305 855.165 164.078)" fill="black"/>
<ellipse rx="11.3864" ry="11.4245" transform="matrix(0.602232 -0.798321 0.804977 0.593305 900.792 197.707)" fill="black"/>
<ellipse rx="11.3864" ry="11.4245" transform="matrix(0.602232 -0.798321 0.804977 0.593305 946.419 231.336)" fill="black"/>
<ellipse rx="11.3864" ry="11.4245" transform="matrix(0.602232 -0.798321 0.804977 0.593305 992.046 264.965)" fill="black"/>
<ellipse rx="11.3864" ry="11.4245" transform="matrix(0.602232 -0.798321 0.804977 0.593305 799.568 49.551)" fill="black"/>
<ellipse rx="11.3864" ry="11.4245" transform="matrix(0.602232 -0.798321 0.804977 0.593305 845.195 83.1802)" fill="black"/>
<ellipse rx="11.3864" ry="11.4245" transform="matrix(0.602232 -0.798321 0.804977 0.593305 890.822 116.809)" fill="black"/>
<ellipse rx="11.3864" ry="11.4245" transform="matrix(0.602232 -0.798321 0.804977 0.593305 936.449 150.439)" fill="black"/>
<ellipse rx="11.3864" ry="11.4245" transform="matrix(0.602232 -0.798321 0.804977 0.593305 982.077 184.068)" fill="black"/>
<ellipse rx="11.3864" ry="11.4245" transform="matrix(0.602232 -0.798321 0.804977 0.593305 1027.7 217.697)" fill="black"/>
<ellipse cx="149.87" cy="42.7648" rx="9.18839" ry="9.08225" fill="black"/>
<ellipse cx="149.87" cy="85.4514" rx="9.18839" ry="9.08225" fill="black"/>
<ellipse cx="149.87" cy="128.138" rx="9.18839" ry="9.08225" fill="black"/>
<ellipse cx="149.87" cy="170.824" rx="9.18839" ry="9.08225" fill="black"/>
<ellipse cx="149.87" cy="213.511" rx="9.18839" ry="9.08225" fill="black"/>
<ellipse cx="149.87" cy="256.198" rx="9.18839" ry="9.08225" fill="black"/>
<ellipse cx="197.649" cy="42.7648" rx="9.18839" ry="9.08225" fill="black"/>
<ellipse cx="197.649" cy="85.4514" rx="9.18839" ry="9.08225" fill="black"/>
<ellipse cx="197.649" cy="128.138" rx="9.18839" ry="9.08225" fill="black"/>
<ellipse cx="197.649" cy="170.824" rx="9.18839" ry="9.08225" fill="black"/>
<ellipse cx="197.649" cy="213.511" rx="9.18839" ry="9.08225" fill="black"/>
<ellipse cx="197.649" cy="256.198" rx="9.18839" ry="9.08225" fill="black"/>
<ellipse cx="245.429" cy="42.7648" rx="9.18839" ry="9.08225" fill="black"/>
<ellipse cx="245.429" cy="85.4514" rx="9.18839" ry="9.08225" fill="black"/>
<ellipse cx="245.429" cy="128.138" rx="9.18839" ry="9.08225" fill="black"/>
<ellipse cx="245.429" cy="170.824" rx="9.18839" ry="9.08225" fill="black"/>
<ellipse cx="245.429" cy="213.511" rx="9.18839" ry="9.08225" fill="black"/>
<ellipse cx="245.429" cy="256.198" rx="9.18839" ry="9.08225" fill="black"/>
<ellipse rx="10.6649" ry="11.057" transform="matrix(0.631169 0.775645 -0.793927 0.608013 1358.22 624.212)" fill="black"/>
<ellipse rx="10.6649" ry="11.057" transform="matrix(0.631169 0.775645 -0.793927 0.608013 1316.96 655.809)" fill="black"/>
<ellipse rx="10.6649" ry="11.057" transform="matrix(0.631169 0.775645 -0.793927 0.608013 1275.71 687.406)" fill="black"/>
<ellipse rx="10.6649" ry="11.057" transform="matrix(0.631169 0.775645 -0.793927 0.608013 1234.45 719.003)" fill="black"/>
<ellipse rx="10.6649" ry="11.057" transform="matrix(0.631169 0.775645 -0.793927 0.608013 1193.19 750.6)" fill="black"/>
<ellipse rx="10.6649" ry="11.057" transform="matrix(0.631169 0.775645 -0.793927 0.608013 1151.93 782.197)" fill="black"/>
<ellipse rx="10.6649" ry="11.057" transform="matrix(0.631169 0.775645 -0.793927 0.608013 1393.23 667.227)" fill="black"/>
<ellipse rx="10.6649" ry="11.057" transform="matrix(0.631169 0.775645 -0.793927 0.608013 1351.97 698.824)" fill="black"/>
<ellipse rx="10.6649" ry="11.057" transform="matrix(0.631169 0.775645 -0.793927 0.608013 1310.71 730.421)" fill="black"/>
<ellipse rx="10.6649" ry="11.057" transform="matrix(0.631169 0.775645 -0.793927 0.608013 1269.45 762.018)" fill="black"/>
<ellipse rx="10.6649" ry="11.057" transform="matrix(0.631169 0.775645 -0.793927 0.608013 1228.19 793.615)" fill="black"/>
<ellipse rx="10.6649" ry="11.057" transform="matrix(0.631169 0.775645 -0.793927 0.608013 1186.93 825.212)" fill="black"/>
<ellipse rx="10.6649" ry="11.057" transform="matrix(0.631169 0.775645 -0.793927 0.608013 1110.67 813.794)" fill="black"/>
<ellipse rx="10.6649" ry="11.057" transform="matrix(0.631169 0.775645 -0.793927 0.608013 1145.67 856.81)" fill="black"/>
</svg>
