<svg width="1448" height="908" viewBox="0 0 1448 908" fill="none" xmlns="http://www.w3.org/2000/svg">
<g filter="url(#filter0_d)">
<rect x="4" width="1440" height="900" fill="white"/>
<path d="M733.793 366.431C818.168 381.379 909.668 415.567 912.105 467.811C914.543 520.055 827.918 590.207 806.73 663.911C785.73 737.615 829.98 814.871 801.668 844.767C773.355 874.663 672.48 857.199 594.48 853.351C516.48 849.651 461.355 859.567 388.605 866.079C315.668 872.591 225.105 875.551 159.855 845.063C94.4175 814.723 54.105 750.787 70.4175 693.955C86.5425 637.123 159.292 587.395 207.48 539.147C255.668 490.899 279.293 443.983 322.98 414.383C366.855 384.783 430.605 372.351 501.293 364.063C571.98 355.775 649.23 351.483 733.793 366.431Z" fill="#DEAFB3"/>
<path d="M427.966 34.7788C449.032 51.9858 437.763 121.216 492.12 155.077C546.477 188.938 666.632 187.381 674.136 207.516C681.469 227.701 576.294 269.384 516.836 307.455C457.379 345.527 443.639 379.986 413.843 422.996C384.188 465.812 338.619 516.986 284.067 537.08C229.485 557.029 165.719 545.802 129.832 511.765C93.9451 477.728 85.5946 420.978 78.331 370.522C71.0381 319.922 64.6312 275.519 64.546 222.872C64.6032 170.031 70.7812 108.849 111.113 84.8075C151.473 60.9108 225.644 74.2512 289.516 63.4891C353.358 52.5817 406.901 17.5717 427.966 34.7788Z" fill="#E18C93"/>
<ellipse cx="154.287" cy="300.068" rx="9.18368" ry="9.07976" fill="black"/>
<ellipse cx="154.287" cy="342.743" rx="9.18368" ry="9.07975" fill="black"/>
<ellipse cx="154.287" cy="385.417" rx="9.18368" ry="9.07975" fill="black"/>
<ellipse cx="154.287" cy="428.092" rx="9.18368" ry="9.07975" fill="black"/>
<ellipse cx="154.287" cy="470.767" rx="9.18368" ry="9.07976" fill="black"/>
<ellipse cx="154.287" cy="513.442" rx="9.18368" ry="9.07976" fill="black"/>
<ellipse cx="202.043" cy="300.068" rx="9.18369" ry="9.07976" fill="black"/>
<ellipse cx="202.043" cy="342.743" rx="9.18369" ry="9.07975" fill="black"/>
<ellipse cx="202.043" cy="385.417" rx="9.18369" ry="9.07975" fill="black"/>
<ellipse cx="202.043" cy="428.092" rx="9.18369" ry="9.07975" fill="black"/>
<ellipse cx="202.043" cy="470.767" rx="9.18369" ry="9.07976" fill="black"/>
<ellipse cx="202.043" cy="513.442" rx="9.18369" ry="9.07976" fill="black"/>
<ellipse cx="249.798" cy="300.068" rx="9.18369" ry="9.07976" fill="black"/>
<ellipse cx="249.798" cy="342.743" rx="9.18369" ry="9.07975" fill="black"/>
<ellipse cx="249.798" cy="385.417" rx="9.18369" ry="9.07975" fill="black"/>
<ellipse cx="249.798" cy="428.092" rx="9.18369" ry="9.07975" fill="black"/>
<ellipse cx="249.798" cy="470.767" rx="9.18369" ry="9.07976" fill="black"/>
<ellipse cx="249.798" cy="513.442" rx="9.18369" ry="9.07976" fill="black"/>
<ellipse cx="399.491" cy="779.479" rx="9.07974" ry="9.1837" transform="rotate(-90 399.491 779.479)" fill="black"/>
<ellipse cx="442.654" cy="779.479" rx="9.07974" ry="9.18365" transform="rotate(-90 442.654 779.479)" fill="black"/>
<ellipse cx="485.818" cy="779.479" rx="9.07974" ry="9.18365" transform="rotate(-90 485.818 779.479)" fill="black"/>
<ellipse cx="528.981" cy="779.479" rx="9.07974" ry="9.18369" transform="rotate(-90 528.981 779.479)" fill="black"/>
<ellipse cx="572.144" cy="779.479" rx="9.07974" ry="9.18369" transform="rotate(-90 572.144 779.479)" fill="black"/>
<ellipse cx="615.308" cy="779.479" rx="9.07974" ry="9.18369" transform="rotate(-90 615.308 779.479)" fill="black"/>
<ellipse cx="399.491" cy="732.264" rx="9.07974" ry="9.1837" transform="rotate(-90 399.491 732.264)" fill="black"/>
<ellipse cx="442.654" cy="732.264" rx="9.07974" ry="9.18365" transform="rotate(-90 442.654 732.264)" fill="black"/>
<ellipse cx="485.818" cy="732.264" rx="9.07974" ry="9.18365" transform="rotate(-90 485.818 732.264)" fill="black"/>
<ellipse cx="528.981" cy="732.264" rx="9.07974" ry="9.18369" transform="rotate(-90 528.981 732.264)" fill="black"/>
<ellipse cx="572.144" cy="732.264" rx="9.07974" ry="9.18369" transform="rotate(-90 572.144 732.264)" fill="black"/>
<ellipse cx="615.308" cy="732.264" rx="9.07974" ry="9.18369" transform="rotate(-90 615.308 732.264)" fill="black"/>
<ellipse cx="399.491" cy="685.049" rx="9.07974" ry="9.1837" transform="rotate(-90 399.491 685.049)" fill="black"/>
<ellipse cx="442.654" cy="685.049" rx="9.07974" ry="9.18365" transform="rotate(-90 442.654 685.049)" fill="black"/>
<ellipse cx="485.818" cy="685.049" rx="9.07974" ry="9.18365" transform="rotate(-90 485.818 685.049)" fill="black"/>
<ellipse cx="528.981" cy="685.049" rx="9.07974" ry="9.18369" transform="rotate(-90 528.981 685.049)" fill="black"/>
<ellipse cx="572.144" cy="685.049" rx="9.07974" ry="9.18369" transform="rotate(-90 572.144 685.049)" fill="black"/>
<ellipse cx="615.308" cy="685.049" rx="9.07974" ry="9.18369" transform="rotate(-90 615.308 685.049)" fill="black"/>
<ellipse cx="658.471" cy="779.479" rx="9.07974" ry="9.18369" transform="rotate(-90 658.471 779.479)" fill="black"/>
<ellipse cx="701.634" cy="779.479" rx="9.07974" ry="9.18365" transform="rotate(-90 701.634 779.479)" fill="black"/>
<ellipse cx="744.797" cy="779.479" rx="9.07974" ry="9.18369" transform="rotate(-90 744.797 779.479)" fill="black"/>
<ellipse cx="787.961" cy="779.479" rx="9.07974" ry="9.18365" transform="rotate(-90 787.961 779.479)" fill="black"/>
<ellipse cx="831.124" cy="779.479" rx="9.07974" ry="9.18369" transform="rotate(-90 831.124 779.479)" fill="black"/>
<ellipse cx="874.287" cy="779.479" rx="9.07974" ry="9.18369" transform="rotate(-90 874.287 779.479)" fill="black"/>
<ellipse cx="658.471" cy="732.264" rx="9.07974" ry="9.18369" transform="rotate(-90 658.471 732.264)" fill="black"/>
<ellipse cx="701.634" cy="732.264" rx="9.07974" ry="9.18365" transform="rotate(-90 701.634 732.264)" fill="black"/>
<ellipse cx="744.797" cy="732.264" rx="9.07974" ry="9.18369" transform="rotate(-90 744.797 732.264)" fill="black"/>
<ellipse cx="787.961" cy="732.264" rx="9.07974" ry="9.18365" transform="rotate(-90 787.961 732.264)" fill="black"/>
<ellipse cx="831.124" cy="732.264" rx="9.07974" ry="9.18369" transform="rotate(-90 831.124 732.264)" fill="black"/>
<ellipse cx="874.287" cy="732.264" rx="9.07974" ry="9.18369" transform="rotate(-90 874.287 732.264)" fill="black"/>
<path d="M1025.35 739.946C957.991 762.029 884.238 760.797 832.538 731.295C780.839 701.794 751.323 643.913 733.622 587.166C716.052 530.308 710.26 474.8 732.799 427.778C755.115 380.758 805.855 342.331 834.371 279.511C863.017 216.581 869.793 129.146 911.89 79.6795C953.986 30.213 1031.53 18.6048 1094.31 34.2958C1157.19 50.094 1205.29 93.1913 1263.86 131.156C1322.56 169.011 1391.81 201.84 1386.45 251.762C1381.19 301.791 1301.18 369.023 1260.21 434.403C1219.23 499.783 1217.16 563.42 1185.66 617.83C1154.02 672.35 1092.84 717.752 1025.35 739.946Z" fill="#C98D21"/>
<path d="M1116.95 353.999C1174.22 382.468 1244.91 395.735 1293.91 432.773C1342.91 469.811 1370.56 530.482 1366.92 591.014C1363.28 651.685 1328.51 712.079 1276.2 757.132C1224.05 802.048 1154.52 831.485 1088.47 828.306C1022.25 825.127 959.679 789.333 900.249 765.286C840.653 741.239 784.368 728.801 751.259 698.673C718.316 668.683 708.383 620.727 677.261 563.927C646.139 507.126 593.827 441.48 611.375 399.605C628.922 357.73 716.33 339.626 788.176 316.684C859.856 293.881 915.976 266.241 965.97 274.256C1015.96 282.134 1059.83 325.667 1116.95 353.999Z" fill="#2741CD"/>
<path d="M904.427 218.901C965.599 320.117 990.673 429.045 963.716 514.55C936.759 600.056 857.522 662.529 782.28 696.957C707.039 731.384 635.338 738.135 549.134 743.809C462.909 749.689 361.952 754.677 276.489 703.722C191.027 652.767 121.079 545.663 144.428 462.695C167.592 379.499 284.053 320.439 383.77 235.977C483.509 151.31 566.503 41.2414 656.543 32.8458C746.377 24.429 843.44 117.912 904.427 218.901Z" fill="#131888"/>
<ellipse rx="11.3864" ry="11.4245" transform="matrix(0.602232 -0.798321 0.804977 0.593305 732.253 144.087)" fill="black"/>
<ellipse rx="11.3864" ry="11.4245" transform="matrix(0.602232 -0.798321 0.804977 0.593305 777.88 177.717)" fill="black"/>
<ellipse rx="11.3864" ry="11.4245" transform="matrix(0.602232 -0.798321 0.804977 0.593305 823.506 211.346)" fill="black"/>
<ellipse rx="11.3864" ry="11.4245" transform="matrix(0.602232 -0.798321 0.804977 0.593305 869.134 244.975)" fill="black"/>
<ellipse rx="11.3864" ry="11.4245" transform="matrix(0.602232 -0.798321 0.804977 0.593305 914.761 278.604)" fill="black"/>
<ellipse rx="11.3864" ry="11.4245" transform="matrix(0.602232 -0.798321 0.804977 0.593305 960.388 312.234)" fill="black"/>
<ellipse rx="11.3864" ry="11.4245" transform="matrix(0.602232 -0.798321 0.804977 0.593305 767.911 96.8191)" fill="black"/>
<ellipse rx="11.3864" ry="11.4245" transform="matrix(0.602232 -0.798321 0.804977 0.593305 813.537 130.448)" fill="black"/>
<ellipse rx="11.3864" ry="11.4245" transform="matrix(0.602232 -0.798321 0.804977 0.593305 859.165 164.078)" fill="black"/>
<ellipse rx="11.3864" ry="11.4245" transform="matrix(0.602232 -0.798321 0.804977 0.593305 904.792 197.707)" fill="black"/>
<ellipse rx="11.3864" ry="11.4245" transform="matrix(0.602232 -0.798321 0.804977 0.593305 950.419 231.336)" fill="black"/>
<ellipse rx="11.3864" ry="11.4245" transform="matrix(0.602232 -0.798321 0.804977 0.593305 996.046 264.965)" fill="black"/>
<ellipse rx="11.3864" ry="11.4245" transform="matrix(0.602232 -0.798321 0.804977 0.593305 803.568 49.551)" fill="black"/>
<ellipse rx="11.3864" ry="11.4245" transform="matrix(0.602232 -0.798321 0.804977 0.593305 849.195 83.1802)" fill="black"/>
<ellipse rx="11.3864" ry="11.4245" transform="matrix(0.602232 -0.798321 0.804977 0.593305 894.822 116.809)" fill="black"/>
<ellipse rx="11.3864" ry="11.4245" transform="matrix(0.602232 -0.798321 0.804977 0.593305 940.449 150.439)" fill="black"/>
<ellipse rx="11.3864" ry="11.4245" transform="matrix(0.602232 -0.798321 0.804977 0.593305 986.077 184.068)" fill="black"/>
<ellipse rx="11.3864" ry="11.4245" transform="matrix(0.602232 -0.798321 0.804977 0.593305 1031.7 217.697)" fill="black"/>
<ellipse cx="153.87" cy="42.7648" rx="9.18839" ry="9.08225" fill="black"/>
<ellipse cx="153.87" cy="85.4514" rx="9.18839" ry="9.08225" fill="black"/>
<ellipse cx="153.87" cy="128.138" rx="9.18839" ry="9.08225" fill="black"/>
<ellipse cx="153.87" cy="170.824" rx="9.18839" ry="9.08225" fill="black"/>
<ellipse cx="153.87" cy="213.511" rx="9.18839" ry="9.08225" fill="black"/>
<ellipse cx="153.87" cy="256.198" rx="9.18839" ry="9.08225" fill="black"/>
<ellipse cx="201.649" cy="42.7648" rx="9.18839" ry="9.08225" fill="black"/>
<ellipse cx="201.649" cy="85.4514" rx="9.18839" ry="9.08225" fill="black"/>
<ellipse cx="201.649" cy="128.138" rx="9.18839" ry="9.08225" fill="black"/>
<ellipse cx="201.649" cy="170.824" rx="9.18839" ry="9.08225" fill="black"/>
<ellipse cx="201.649" cy="213.511" rx="9.18839" ry="9.08225" fill="black"/>
<ellipse cx="201.649" cy="256.198" rx="9.18839" ry="9.08225" fill="black"/>
<ellipse cx="249.429" cy="42.7648" rx="9.18839" ry="9.08225" fill="black"/>
<ellipse cx="249.429" cy="85.4514" rx="9.18839" ry="9.08225" fill="black"/>
<ellipse cx="249.429" cy="128.138" rx="9.18839" ry="9.08225" fill="black"/>
<ellipse cx="249.429" cy="170.824" rx="9.18839" ry="9.08225" fill="black"/>
<ellipse cx="249.429" cy="213.511" rx="9.18839" ry="9.08225" fill="black"/>
<ellipse cx="249.429" cy="256.198" rx="9.18839" ry="9.08225" fill="black"/>
<ellipse rx="10.6649" ry="11.057" transform="matrix(0.631169 0.775645 -0.793927 0.608013 1362.22 624.212)" fill="black"/>
<ellipse rx="10.6649" ry="11.057" transform="matrix(0.631169 0.775645 -0.793927 0.608013 1320.96 655.809)" fill="black"/>
<ellipse rx="10.6649" ry="11.057" transform="matrix(0.631169 0.775645 -0.793927 0.608013 1279.71 687.406)" fill="black"/>
<ellipse rx="10.6649" ry="11.057" transform="matrix(0.631169 0.775645 -0.793927 0.608013 1238.45 719.003)" fill="black"/>
<ellipse rx="10.6649" ry="11.057" transform="matrix(0.631169 0.775645 -0.793927 0.608013 1197.19 750.6)" fill="black"/>
<ellipse rx="10.6649" ry="11.057" transform="matrix(0.631169 0.775645 -0.793927 0.608013 1155.93 782.197)" fill="black"/>
<ellipse rx="10.6649" ry="11.057" transform="matrix(0.631169 0.775645 -0.793927 0.608013 1397.23 667.227)" fill="black"/>
<ellipse rx="10.6649" ry="11.057" transform="matrix(0.631169 0.775645 -0.793927 0.608013 1355.97 698.824)" fill="black"/>
<ellipse rx="10.6649" ry="11.057" transform="matrix(0.631169 0.775645 -0.793927 0.608013 1314.71 730.421)" fill="black"/>
<ellipse rx="10.6649" ry="11.057" transform="matrix(0.631169 0.775645 -0.793927 0.608013 1273.45 762.018)" fill="black"/>
<ellipse rx="10.6649" ry="11.057" transform="matrix(0.631169 0.775645 -0.793927 0.608013 1232.19 793.615)" fill="black"/>
<ellipse rx="10.6649" ry="11.057" transform="matrix(0.631169 0.775645 -0.793927 0.608013 1190.93 825.212)" fill="black"/>
<ellipse rx="10.6649" ry="11.057" transform="matrix(0.631169 0.775645 -0.793927 0.608013 1114.67 813.794)" fill="black"/>
<ellipse rx="10.6649" ry="11.057" transform="matrix(0.631169 0.775645 -0.793927 0.608013 1149.67 856.81)" fill="black"/>
</g>
<defs>
<filter id="filter0_d" x="0" y="0" width="1448" height="908" filterUnits="userSpaceOnUse" color-interpolation-filters="sRGB">
<feFlood flood-opacity="0" result="BackgroundImageFix"/>
<feColorMatrix in="SourceAlpha" type="matrix" values="0 0 0 0 0 0 0 0 0 0 0 0 0 0 0 0 0 0 127 0"/>
<feOffset dy="4"/>
<feGaussianBlur stdDeviation="2"/>
<feColorMatrix type="matrix" values="0 0 0 0 0 0 0 0 0 0 0 0 0 0 0 0 0 0 0.25 0"/>
<feBlend mode="normal" in2="BackgroundImageFix" result="effect1_dropShadow"/>
<feBlend mode="normal" in="SourceGraphic" in2="effect1_dropShadow" result="shape"/>
</filter>
</defs>
</svg>
